<svg version="1.1" id="Layer_1" xmlns="http://www.w3.org/2000/svg" xmlns:xlink="http://www.w3.org/1999/xlink" x="0px" y="0px"
	 width="100%" viewBox="0 0 1300 1100" enable-background="new 0 0 1300 1100" xml:space="preserve">
<path fill="currentColor"  stroke="none" 
	d="
M431.967834,547.232666 
	C431.995667,559.671997 431.995667,571.627930 431.995667,583.977417 
	C358.222473,583.977417 284.822754,583.977417 211.212189,583.977417 
	C211.212189,628.080566 211.212189,671.786316 211.212189,714.426392 
	C222.293381,707.228088 233.323074,699.003540 245.314774,692.572754 
	C257.214752,686.191040 270.234711,681.966736 283.924225,681.067444 
	C294.315948,680.384766 304.842651,679.294250 315.143829,680.222107 
	C334.922241,682.003784 353.774567,687.780518 370.334991,699.059082 
	C379.457886,705.272217 388.437347,712.074829 396.127136,719.936462 
	C413.449341,737.645691 424.662964,758.938538 428.920807,783.506775 
	C430.449371,792.326965 432.055206,801.345581 431.808472,810.223145 
	C430.966827,840.504272 421.666718,867.854492 402.102386,891.517029 
	C386.013458,910.976318 365.909485,924.184143 342.215515,932.383118 
	C324.136200,938.639221 305.298309,939.668274 286.770508,937.661560 
	C261.343536,934.907410 238.353775,925.068054 218.558456,908.182495 
	C195.217178,888.272217 180.387283,863.541321 175.109833,833.360168 
	C173.341766,823.248901 172.169556,812.891907 172.133011,802.642212 
	C171.880402,731.817566 172.000000,660.991638 172.000000,590.166077 
	C172.000000,588.339905 172.000000,586.513794 172.000000,584.285278 
	C142.490097,584.285278 113.085503,584.285278 83.340973,584.285278 
	C83.340973,571.486450 83.340973,559.080139 83.340973,546.269287 
	C112.525955,546.269287 141.930542,546.269287 171.721375,546.269287 
	C171.721375,385.475281 171.721375,225.082870 171.721375,64.345306 
	C184.838165,64.345306 197.577835,64.345306 210.682541,64.345306 
	C210.682541,118.524689 210.682541,172.933701 210.682541,228.319229 
	C237.372833,202.935318 268.331146,190.401382 304.385803,191.005814 
	C340.616425,191.613174 371.826385,204.966141 396.352539,231.175369 
	C449.709717,288.194214 439.417847,372.407837 387.712280,417.953430 
	C345.047272,455.535522 268.466827,466.769775 211.203094,413.294708 
	C211.203094,457.522400 211.203094,501.560455 211.203094,546.000000 
	C213.179138,546.000000 214.967560,546.000000 216.755981,546.000000 
	C286.748291,546.000000 356.740570,545.994690 426.732849,546.031433 
	C428.468719,546.032349 430.204315,546.499451 431.967834,547.232666 
M212.002075,304.780975 
	C211.993744,306.114136 212.182205,307.483215 211.946609,308.774933 
	C209.606522,321.605347 211.322952,334.072754 214.823822,346.485382 
	C220.457703,366.460754 232.464706,382.062592 248.804306,394.071472 
	C270.200439,409.796570 294.605286,414.885986 320.533447,409.589996 
	C340.304749,405.551575 357.054657,395.576233 370.472687,380.104462 
	C391.085388,356.336670 397.836060,328.747559 390.570770,298.758118 
	C384.076691,271.951965 367.931702,251.345444 342.609833,239.007996 
	C324.510345,230.189484 305.653473,226.791077 285.499817,230.896439 
	C256.474335,236.809021 235.005615,252.716934 221.258499,278.663666 
	C217.105042,286.503021 215.046799,295.452484 212.002075,304.780975 
M239.515274,742.990601 
	C223.013489,758.507690 213.635757,777.853027 211.214828,800.057922 
	C209.225098,818.307922 212.942764,835.881897 221.962067,852.232666 
	C232.326584,871.022034 247.318390,884.496216 266.910797,892.986328 
	C285.175354,900.901062 304.267303,902.524597 323.310577,897.681946 
	C350.787140,890.694580 371.276917,874.140076 383.999908,848.587158 
	C393.156525,830.197021 395.042114,810.938538 391.141724,790.719910 
	C387.035797,769.436035 376.292297,752.031311 359.914124,738.808289 
	C339.759186,722.536011 316.378876,715.138428 289.990051,718.911133 
	C270.795532,721.655273 254.264572,729.514526 239.515274,742.990601 
z"/>
<path fill="currentColor"  stroke="none" 
	d="
M840.021973,740.801514 
	C838.590271,731.048645 837.237366,721.734497 835.747925,712.442383 
	C834.235474,703.007019 832.595764,693.592041 830.998047,684.170471 
	C829.102905,672.995056 827.145813,661.829956 825.304077,650.645813 
	C823.801819,641.523315 822.487671,632.369812 820.983887,623.247559 
	C819.456726,613.983521 817.738892,604.750793 816.227539,595.484314 
	C815.578613,591.505920 815.240112,587.476929 814.986389,585.357544 
	C814.986389,598.849792 814.985229,614.171570 814.987000,629.493347 
	C814.987671,635.159546 814.935059,640.826538 815.010681,646.491821 
	C815.318665,669.577026 815.624329,692.662476 816.015198,715.746399 
	C816.267761,730.666504 816.622864,745.585388 817.015869,760.502563 
	C817.264038,769.924011 817.671936,779.341187 817.993896,788.760742 
	C818.038147,790.054932 818.000000,791.351807 818.000000,792.807007 
	C809.970886,792.807007 802.349854,792.807007 794.363892,792.807007 
	C794.363892,710.862732 794.363892,628.795105 794.363892,546.363647 
	C806.598572,546.363647 819.130920,546.363647 831.532227,546.363647 
	C841.176086,609.605713 850.808655,672.773987 860.441284,735.942261 
	C860.809448,735.980347 861.177612,736.018494 861.545715,736.056580 
	C861.693054,734.182007 862.039917,732.297180 861.944946,730.434937 
	C861.761902,726.845276 861.120972,723.273254 861.035339,719.685242 
	C860.623352,702.435181 860.379395,685.181091 859.982666,667.930603 
	C859.742920,657.509277 859.327026,647.092163 859.001709,636.672791 
	C858.660645,625.753967 858.339111,614.834534 857.998169,603.915710 
	C857.672729,593.496338 857.409546,583.074280 856.976501,572.659302 
	C856.614197,563.945984 856.046143,555.241211 855.553711,546.249878 
	C864.034302,546.249878 871.771851,546.249878 879.755920,546.249878 
	C879.755920,628.378052 879.755920,710.445129 879.755920,792.999023 
	C870.252136,792.999023 860.805481,793.130066 851.372437,792.830750 
	C850.211853,792.793884 848.356506,790.586487 848.120483,789.168884 
	C845.536316,773.648499 843.214905,758.084412 840.790222,742.537170 
	C840.718994,742.080261 840.298462,741.677856 840.021973,740.801514 
z"/>
<path fill="currentColor"  stroke="none" 
	d="
M606.000000,617.000000 
	C606.000000,629.142090 606.000000,640.784119 606.000000,652.712524 
	C615.955688,652.712524 625.693420,652.712524 635.832397,652.712524 
	C635.832397,617.369629 635.832397,581.968140 635.832397,546.284180 
	C644.962158,546.284180 653.700073,546.284180 662.720398,546.284180 
	C662.720398,628.299255 662.720398,710.359009 662.720398,792.709534 
	C654.050964,792.709534 645.312805,792.709534 636.173828,792.709534 
	C636.173828,754.042114 636.173828,715.307922 636.173828,676.287659 
	C626.044678,676.287659 616.306885,676.287659 606.168579,676.287659 
	C606.168579,714.963135 606.168579,753.697327 606.168579,792.714966 
	C597.372864,792.714966 588.968323,792.714966 580.280396,792.714966 
	C580.280396,710.702393 580.280396,628.642578 580.280396,546.291260 
	C588.614136,546.291260 597.018860,546.291260 606.000000,546.291260 
	C606.000000,569.647705 606.000000,593.073853 606.000000,617.000000 
z"/>
<path fill="currentColor"  stroke="none" 
	d="
M924.002319,246.199066 
	C924.936462,245.143982 925.864258,244.082565 926.801331,244.074265 
	C939.299255,243.963562 951.820374,243.551407 964.289795,244.157700 
	C972.636414,244.563538 981.663208,245.807495 987.382385,252.428101 
	C991.731567,257.462616 995.080872,264.104370 996.696533,270.574951 
	C998.887573,279.349884 999.534912,288.624481 999.872742,297.720825 
	C1000.367188,311.034637 1000.492371,324.404755 999.836243,337.704559 
	C999.355469,347.448822 998.688721,357.484985 992.943604,366.032898 
	C990.873230,369.113190 988.235962,371.812408 985.777649,374.781921 
	C992.219299,376.924408 996.380798,382.498596 998.339539,389.842285 
	C999.043152,392.480164 999.919312,395.194153 999.929016,397.876251 
	C1000.040405,428.696136 999.999939,459.516541 999.999939,490.668335 
	C991.469666,490.668335 983.062317,490.668335 974.000000,490.668335 
	C974.000000,489.108002 974.000000,487.353180 974.000000,485.598328 
	C974.000000,457.934052 974.093445,430.269073 973.885010,402.606354 
	C973.858093,399.035828 973.009094,395.038879 971.222961,392.018921 
	C968.742310,387.824585 964.546143,385.466980 959.198059,385.954773 
	C956.390686,386.210815 953.540771,386.000000 950.309448,386.000000 
	C950.309448,420.813477 950.309448,455.553070 950.309448,490.645996 
	C941.516602,490.645996 933.107849,490.645996 924.000244,490.645996 
	C924.000244,409.493683 924.000244,328.087982 924.002319,246.199066 
M970.667725,277.141785 
	C966.756714,267.154907 958.234070,269.186340 950.297607,269.055695 
	C950.297607,301.856232 950.297607,334.339539 950.297607,367.000000 
	C952.241455,367.000000 953.888611,366.999878 955.535706,367.000000 
	C964.898621,367.000702 969.864563,363.443481 971.755859,354.350586 
	C973.009644,348.322784 973.729919,342.104340 973.904602,335.948944 
	C974.234802,324.314819 974.365906,312.649139 973.871277,301.026703 
	C973.541931,293.288849 971.984619,285.603302 970.667725,277.141785 
z"/>
<path fill="currentColor"  stroke="none" 
	d="
M502.000000,372.000000 
	C502.000000,329.193787 502.000000,286.887573 502.000000,243.066528 
	C518.504517,244.062241 534.923523,243.807022 550.872803,246.419632 
	C563.052368,248.414719 568.502075,259.260864 570.906921,270.679901 
	C574.249756,286.553162 574.712402,302.763214 573.798950,318.866638 
	C573.235107,328.808472 570.863464,338.666382 569.028625,348.510742 
	C567.878540,354.680695 563.799927,358.737335 558.037842,361.575378 
	C569.827454,366.215576 573.829041,376.409729 574.771118,387.331573 
	C576.288086,404.918701 577.197449,422.657837 576.686340,440.284149 
	C576.362610,451.447479 573.865234,462.774872 570.735718,473.562469 
	C567.907227,483.312439 559.840271,489.291595 549.732483,489.793457 
	C534.049255,490.572144 518.298950,489.999054 502.000000,489.999054 
	C502.000000,451.350281 502.000000,411.925140 502.000000,372.000000 
M551.000000,430.579315 
	C551.333313,425.661987 551.917419,420.745117 551.926880,415.827148 
	C551.935669,411.243713 551.342407,406.658386 550.997314,402.075165 
	C550.677795,397.830566 550.326660,393.588348 550.005371,389.343872 
	C549.007019,376.152954 541.763855,371.348022 529.198242,373.429993 
	C529.198242,404.799652 529.198242,436.200500 529.198242,468.000000 
	C532.003296,468.000000 534.626953,468.003357 537.250610,467.999329 
	C544.452881,467.988342 547.932739,465.634796 548.880005,458.486176 
	C550.061096,449.573639 550.334595,440.540802 551.000000,430.579315 
M549.000000,292.325745 
	C548.667542,288.257385 548.530762,284.161621 547.965149,280.125946 
	C546.394958,268.921844 540.393188,265.027740 529.297485,267.651459 
	C529.297485,296.410461 529.297485,325.127167 529.297485,353.803223 
	C541.720581,355.363708 546.985291,350.861053 548.004700,338.462646 
	C548.366821,334.059021 548.919861,329.654846 548.976257,325.245636 
	C549.112549,314.590118 549.007751,303.931488 549.000000,292.325745 
z"/>
<path fill="currentColor"  stroke="none" 
	d="
M955.039062,793.000000 
	C951.895508,793.000000 949.246704,793.000000 946.300781,793.000000 
	C946.300781,710.731689 946.300781,628.660706 946.300781,546.977844 
	C959.223450,546.977844 972.230530,546.954285 985.237488,546.986938 
	C992.609436,547.005493 999.143738,549.133850 1004.765686,554.193054 
	C1012.438538,561.097900 1014.658142,570.367432 1015.879761,579.845947 
	C1017.094788,589.274170 1018.475220,598.918823 1017.732239,608.306213 
	C1016.605591,622.541809 1018.905518,637.317749 1012.901245,650.907654 
	C1010.832092,655.591003 1007.311401,659.633118 1004.126221,664.465027 
	C1004.724182,664.936462 1006.432617,666.263123 1008.119324,667.616760 
	C1015.355286,673.424072 1018.095276,681.749451 1018.807373,690.266479 
	C1020.140381,706.210144 1021.190918,722.273804 1020.733032,738.240967 
	C1020.355164,751.414185 1019.883057,764.910950 1014.020752,777.315369 
	C1010.030884,785.757751 1003.340637,791.101868 994.255432,791.824951 
	C981.398438,792.848206 968.445618,792.666626 955.039062,793.000000 
M972.000000,732.500000 
	C972.000000,744.925964 972.000000,757.351990 972.000000,770.000000 
	C976.037231,770.000000 979.530823,769.771851 982.982605,770.054199 
	C987.987244,770.463623 990.798096,767.705200 991.883667,763.520020 
	C993.335693,757.922424 994.822266,752.123779 994.847595,746.405029 
	C994.927551,728.336731 994.665710,710.251099 993.887756,692.200134 
	C993.333496,679.339172 987.103577,673.503052 972.000000,675.625366 
	C972.000000,694.229675 972.000000,712.864807 972.000000,732.500000 
M972.000000,623.500000 
	C972.000000,634.249756 972.000000,644.999512 972.000000,656.000000 
	C974.653015,656.000000 976.807922,655.818542 978.922607,656.033142 
	C986.001831,656.751709 988.789124,652.682190 990.742432,647.321350 
	C992.101685,643.590942 992.910645,639.430420 992.891785,635.467102 
	C992.809998,618.259949 992.709290,601.036377 991.875366,583.854675 
	C991.276184,571.511230 984.358276,566.963989 972.000000,569.691895 
	C972.000000,587.271790 972.000000,604.885925 972.000000,623.500000 
z"/>
<path fill="currentColor"  stroke="none" 
	d="
M1143.000000,707.000000 
	C1143.000000,653.197937 1143.000000,599.895874 1143.000000,546.950562 
	C1155.384277,546.950562 1167.558350,546.843018 1179.728516,547.015259 
	C1183.446655,547.067871 1187.279053,547.443176 1190.842896,548.441956 
	C1201.620850,551.462463 1207.975586,559.442932 1210.802002,569.585327 
	C1213.692261,579.956665 1215.695557,590.692383 1216.875366,601.402100 
	C1221.161255,640.307068 1218.825684,679.386169 1218.689331,718.375916 
	C1218.630005,735.324707 1217.350830,752.539124 1212.053711,769.042236 
	C1206.028198,787.815002 1196.572876,791.850769 1179.484497,792.863647 
	C1167.551880,793.570984 1155.543579,793.000000 1143.000000,793.000000 
	C1143.000000,764.349731 1143.000000,735.924866 1143.000000,707.000000 
M1193.000000,710.498474 
	C1192.666748,678.441162 1192.451782,646.381958 1191.920410,614.327942 
	C1191.779541,605.831482 1191.018433,597.305115 1189.919067,588.873718 
	C1188.065308,574.657959 1181.694580,569.533325 1169.210327,571.538940 
	C1169.210327,636.896606 1169.210327,702.263367 1169.210327,768.000000 
	C1171.537231,768.000000 1173.660034,768.000916 1175.782715,767.999939 
	C1183.847656,767.996216 1187.069702,765.279663 1189.033447,757.410706 
	C1192.803223,742.305481 1192.619995,726.882446 1193.000000,710.498474 
z"/>
<path fill="currentColor"  stroke="none" 
	d="
M766.729126,762.399658 
	C767.881714,772.710938 768.802734,782.619202 769.745056,792.756409 
	C760.117432,792.756409 750.345276,792.756409 739.780457,792.756409 
	C738.264771,772.608459 736.741150,752.354980 735.219849,732.132080 
	C727.073364,732.132080 719.776306,732.132080 711.756287,732.132080 
	C710.260620,752.357910 708.769775,772.519226 707.269043,792.814087 
	C697.956055,792.814087 689.191406,792.814087 679.767944,792.814087 
	C688.498840,710.433838 697.205261,628.284790 705.926086,546.000122 
	C717.735535,546.000122 728.881348,546.090393 740.023865,545.938477 
	C742.919006,545.898987 743.749878,547.438354 743.971680,549.700562 
	C745.024536,560.441101 745.856567,571.204895 747.035522,581.930969 
	C748.548218,595.692505 750.399963,609.416565 751.942749,623.174988 
	C752.799805,630.818115 753.200073,638.512085 754.029968,646.158875 
	C755.207458,657.008362 756.637573,667.830200 757.869995,678.674072 
	C758.663330,685.654358 759.250061,692.657898 760.010071,699.642212 
	C761.297729,711.475830 762.709290,723.296204 763.954041,735.134216 
	C764.894592,744.078674 765.656250,753.041870 766.729126,762.399658 
M721.000000,606.664673 
	C720.666077,613.738953 720.376099,620.815674 719.982483,627.886658 
	C719.727417,632.469604 719.361389,637.047485 718.975037,641.621765 
	C717.666870,657.108154 716.273987,672.587646 715.021790,688.078552 
	C714.363098,696.226868 713.929688,704.393372 713.382568,712.735352 
	C719.992615,712.735352 726.887024,712.735352 734.371399,712.735352 
	C733.883545,709.198181 733.248169,706.013367 733.036438,702.800659 
	C732.279968,691.320312 731.676697,679.829895 730.995605,668.344421 
	C730.684570,663.099060 730.391724,657.851257 729.979309,652.613342 
	C728.681274,636.127625 727.294495,619.648865 726.019226,603.161377 
	C725.562805,597.261230 725.371704,591.340759 724.935852,585.438721 
	C724.878296,584.658997 724.085571,583.933594 723.255859,582.556641 
	C722.453491,590.795776 721.726807,598.257751 721.000000,606.664673 
z"/>
<path fill="currentColor"  stroke="none" 
	d="
M1044.978882,708.735901 
	C1046.323608,696.110413 1047.680298,683.950928 1048.965332,671.783875 
	C1049.703613,664.793213 1050.267822,657.784119 1051.012695,650.794189 
	C1052.291870,638.793030 1053.712036,626.806641 1054.954590,614.801880 
	C1055.746582,607.150391 1056.207031,599.464172 1057.027954,591.816223 
	C1058.245239,580.474548 1059.683472,569.156738 1060.956665,557.820801 
	C1061.388428,553.976746 1061.604736,550.108521 1061.939941,546.000488 
	C1073.746460,546.000488 1085.050781,546.062561 1096.353638,545.959229 
	C1099.385864,545.931580 1099.766846,547.903870 1099.976196,550.029602 
	C1101.353149,564.019653 1102.597900,578.023010 1104.020752,592.008240 
	C1105.606201,607.594238 1107.251709,623.175171 1109.023926,638.740906 
	C1110.922119,655.413818 1113.107544,672.054321 1114.957642,688.732361 
	C1116.165527,699.621460 1116.859009,710.567322 1118.035522,721.460449 
	C1119.557617,735.554993 1121.402222,749.614502 1122.967407,763.704773 
	C1123.798218,771.183105 1124.292236,778.698425 1125.026001,786.188416 
	C1125.230103,788.271179 1125.747559,790.323120 1126.180054,792.714355 
	C1116.170410,792.714355 1106.415649,792.714355 1095.764160,792.714355 
	C1094.280151,772.752563 1092.781494,752.592346 1091.267944,732.233765 
	C1083.458984,732.233765 1076.014282,732.233765 1067.759033,732.233765 
	C1066.249146,752.392944 1064.732178,772.647034 1063.218628,792.855591 
	C1053.745239,792.855591 1045.124023,792.855591 1036.004395,792.855591 
	C1036.378540,787.358643 1036.582153,782.011597 1037.141724,776.702087 
	C1037.960571,768.932678 1039.073364,761.194763 1039.990845,753.435120 
	C1041.349731,741.942749 1042.656128,730.444031 1043.964355,718.945679 
	C1044.333618,715.700989 1044.630737,712.447937 1044.978882,708.735901 
M1070.002930,698.769409 
	C1070.002930,703.337646 1070.002930,707.905945 1070.002930,712.744019 
	C1075.979614,712.744019 1082.866089,712.744019 1090.367310,712.744019 
	C1089.881958,709.222778 1089.247681,706.041504 1089.036499,702.832458 
	C1088.280273,691.348083 1087.676758,679.853821 1086.995850,668.364380 
	C1086.684814,663.117188 1086.407715,657.866089 1085.976685,652.628174 
	C1084.687744,636.968079 1083.266235,621.318604 1082.030640,605.654480 
	C1081.513062,599.091736 1081.385376,592.498840 1080.947876,585.928528 
	C1080.870361,584.765686 1080.138794,583.646484 1079.310913,581.450806 
	C1078.132202,594.603516 1076.994629,606.487976 1076.020264,618.385864 
	C1074.936646,631.619385 1073.914429,644.859314 1073.027710,658.107300 
	C1072.236938,669.922180 1071.691528,681.753357 1070.968262,693.573059 
	C1070.880615,695.004883 1070.358887,696.410156 1070.002930,698.769409 
z"/>
<path fill="currentColor"  stroke="none" 
	d="
M655.000000,249.110199 
	C655.000000,255.900620 655.000000,262.201050 655.000000,268.900299 
	C644.971924,268.900299 635.230896,268.900299 625.247925,268.900299 
	C625.247925,298.368011 625.247925,327.433594 625.247925,356.903625 
	C633.363342,356.903625 641.439880,356.903625 649.754028,356.903625 
	C649.754028,363.373444 649.754028,369.443909 649.754028,375.920868 
	C641.620605,375.920868 633.542725,375.920868 625.237427,375.920868 
	C625.237427,406.055847 625.237427,435.787903 625.237427,465.923584 
	C635.717468,465.923584 646.126038,465.923584 656.763611,465.923584 
	C656.763611,474.393799 656.763611,482.463593 656.763611,490.767639 
	C637.265625,490.767639 617.864807,490.767639 598.231689,490.767639 
	C598.231689,408.609100 598.231689,326.553955 598.231689,244.249313 
	C617.033264,244.249313 635.767456,244.249313 655.000000,244.249313 
	C655.000000,245.736816 655.000000,247.178528 655.000000,249.110199 
z"/>
<path fill="currentColor"  stroke="none" 
	d="
M898.960938,244.000000 
	C902.103210,244.000000 904.750732,244.000000 907.698364,244.000000 
	C907.698364,252.258499 907.698364,260.329926 907.698364,268.807861 
	C898.068176,268.807861 888.325745,268.807861 878.294189,268.807861 
	C878.294189,298.274109 878.294189,327.339844 878.294189,356.810120 
	C886.265198,356.810120 894.343018,356.810120 902.707153,356.810120 
	C902.707153,363.276917 902.707153,369.348419 902.707153,375.826965 
	C894.717407,375.826965 886.639709,375.826965 878.284424,375.826965 
	C878.284424,405.960480 878.284424,435.692627 878.284424,465.828522 
	C888.619873,465.828522 899.028748,465.828522 909.716003,465.828522 
	C909.716003,474.295013 909.716003,482.365967 909.716003,490.719910 
	C890.362793,490.719910 870.961731,490.719910 851.279663,490.719910 
	C851.279663,408.706238 851.279663,326.651764 851.279663,244.000000 
	C866.951965,244.000000 882.709106,244.000000 898.960938,244.000000 
z"/>
<path fill="currentColor"  stroke="none" 
	d="
M785.000000,244.000000 
	C800.807861,244.000000 816.115723,244.000000 831.711304,244.000000 
	C831.711304,252.285355 831.711304,260.356781 831.711304,268.835693 
	C823.707825,268.835693 815.630188,268.835693 807.171143,268.835693 
	C807.171143,342.964844 807.171143,416.691772 807.171143,490.708984 
	C798.052429,490.708984 789.314392,490.708984 780.185059,490.708984 
	C780.185059,417.049164 780.185059,343.322235 780.185059,269.191833 
	C771.736450,269.191833 763.658875,269.191833 755.293579,269.191833 
	C755.293579,260.724701 755.293579,252.653107 755.293579,244.000000 
	C764.973328,244.000000 774.736694,244.000000 785.000000,244.000000 
z"/>
<path fill="currentColor"  stroke="none" 
	d="
M516.000000,609.000000 
	C516.000000,596.191650 516.000000,583.883301 516.000000,571.171814 
	C507.716156,571.171814 499.638123,571.171814 491.283508,571.171814 
	C491.283508,562.703613 491.283508,554.632263 491.283508,546.279053 
	C516.639832,546.279053 542.040649,546.279053 567.721252,546.279053 
	C567.721252,554.306274 567.721252,562.377563 567.721252,570.855530 
	C559.353394,570.855530 550.943298,570.855530 542.151367,570.855530 
	C542.151367,644.984680 542.151367,718.711548 542.151367,792.718811 
	C533.365112,792.718811 524.960754,792.718811 516.000000,792.718811 
	C516.000000,731.670532 516.000000,670.585266 516.000000,609.000000 
z"/>
<path fill="currentColor"  stroke="none" 
	d="
M709.948303,491.000000 
	C703.817444,491.000000 698.177979,491.000000 692.151489,491.000000 
	C692.151489,417.016174 692.151489,343.287811 692.151489,269.156006 
	C683.366028,269.156006 674.954956,269.156006 666.275513,269.156006 
	C666.275513,260.686981 666.275513,252.615601 666.275513,244.270859 
	C691.656921,244.270859 717.058167,244.270859 742.730164,244.270859 
	C742.730164,252.324921 742.730164,260.396118 742.730164,268.874146 
	C734.666077,268.874146 726.589905,268.874146 718.130310,268.874146 
	C718.130310,343.005035 718.130310,416.733368 718.130310,491.000000 
	C715.313660,491.000000 712.876648,491.000000 709.948303,491.000000 
z"/>
<path fill="currentColor"  stroke="none" 
	d="
M795.000000,899.000000 
	C795.000000,911.808472 795.000000,924.116943 795.000000,936.712158 
	C791.050415,936.712158 787.310242,936.712158 783.201172,936.712158 
	C783.201172,915.043030 783.201172,893.306030 783.201172,870.103943 
	C780.057312,874.135193 777.611938,877.002991 775.461548,880.077087 
	C768.245239,890.393005 761.111084,900.766724 753.992371,911.150452 
	C750.322571,916.503418 746.502258,916.578125 742.692688,911.235229 
	C733.590454,898.469604 724.502014,885.694092 715.424438,872.910889 
	C714.953308,872.247375 714.635803,871.474792 714.246826,870.752991 
	C713.880859,870.979126 713.514893,871.205261 713.148926,871.431396 
	C713.148926,893.111084 713.148926,914.790771 713.148926,936.733643 
	C708.671387,936.733643 704.599609,936.733643 700.261230,936.733643 
	C700.261230,908.328125 700.261230,879.926819 700.261230,851.002563 
	C705.197449,851.002563 710.209351,850.518738 715.044312,851.232910 
	C717.070190,851.532104 719.055420,854.127502 720.487366,856.095093 
	C729.050476,867.861389 737.650085,879.612122 745.779663,891.676575 
	C748.338745,895.474304 749.907654,894.104980 751.635315,891.745972 
	C760.427307,879.741638 769.302795,867.787354 777.667419,855.488098 
	C780.068298,851.957825 782.505859,850.599487 786.499756,850.955811 
	C789.124390,851.190002 791.786926,851.000000 795.000000,851.000000 
	C795.000000,866.974731 795.000000,882.737366 795.000000,899.000000 
z"/>
<path fill="currentColor"  stroke="none" 
	d="
M850.032410,849.000000 
	C860.561279,848.538513 870.482300,849.146240 879.008423,855.112122 
	C882.650818,857.660767 885.494873,861.350464 889.241943,865.056030 
	C883.863037,868.293884 879.517883,870.909546 875.190552,873.514404 
	C866.066650,859.148926 848.845947,858.454651 836.738525,863.754517 
	C832.501648,865.609192 829.821777,869.142761 831.257141,873.451721 
	C832.232727,876.380432 835.211426,879.785889 838.043274,880.728882 
	C845.325500,883.153870 853.025513,884.322998 860.556946,886.001404 
	C868.762024,887.829895 876.850769,889.911194 883.317383,895.802429 
	C891.670044,903.411743 890.656738,920.853027 880.406494,928.325684 
	C868.653137,936.894226 855.790771,939.574707 841.804199,936.923584 
	C835.083801,935.649719 828.097351,934.239502 822.095825,931.189697 
	C817.093567,928.647644 813.352600,923.623291 808.927856,919.584167 
	C810.289551,918.432800 810.507690,918.197021 810.770691,918.033325 
	C817.638306,913.760071 822.798584,910.268921 830.657898,919.229614 
	C838.997559,928.737976 859.299072,927.255859 870.442932,918.937805 
	C875.841431,914.908142 875.341064,905.105042 869.102661,902.809570 
	C861.923035,900.167786 854.176514,899.112915 846.804932,896.933411 
	C839.480286,894.767822 832.071228,892.603394 825.133179,889.475647 
	C812.086365,883.593933 812.829773,859.933289 827.460571,853.678162 
	C834.704895,850.580872 841.784790,848.711609 850.032410,849.000000 
z"/>
<path fill="currentColor"  stroke="none" 
	d="
M530.000000,908.052612 
	C530.000000,917.850342 530.000000,927.156372 530.000000,936.730042 
	C525.344421,936.730042 520.938660,936.730042 516.263916,936.730042 
	C516.263916,908.329895 516.263916,879.925964 516.263916,851.260620 
	C537.016968,851.260620 557.757629,851.260620 579.177429,851.260620 
	C578.741333,855.341614 578.315247,859.328491 577.846741,863.712646 
	C562.190308,863.712646 546.444641,863.712646 530.350281,863.712646 
	C530.350281,871.824219 530.350281,879.566101 530.350281,887.724243 
	C542.169495,887.724243 554.243774,887.724243 567.221619,887.724243 
	C566.838562,892.093018 566.498047,895.976257 566.142883,900.027222 
	C553.788208,900.027222 542.162231,900.027222 530.000000,900.027222 
	C530.000000,902.686401 530.000000,905.123657 530.000000,908.052612 
z"/>
<path fill="currentColor"  stroke="none" 
	d="
M641.000122,920.832092 
	C640.493103,924.756775 642.985291,923.985657 644.828857,923.988647 
	C657.816406,924.009949 670.804016,924.000000 683.791565,924.000000 
	C685.424438,924.000000 687.057312,924.000000 689.183228,924.000000 
	C688.674072,928.449036 688.217041,932.442505 687.726257,936.730896 
	C667.749329,936.730896 647.676208,936.730896 627.300964,936.730896 
	C627.300964,908.419800 627.300964,880.033936 627.300964,851.323608 
	C631.546326,851.323608 635.949890,851.323608 641.000000,851.323608 
	C641.000000,874.212952 641.000000,897.279907 641.000122,920.832092 
z"/>
<path fill="currentColor"  stroke="none" 
	d="
M606.000000,891.000000 
	C606.000000,906.473267 606.000000,921.446472 606.000000,936.709351 
	C601.386597,936.709351 596.981567,936.709351 592.285522,936.709351 
	C592.285522,908.379761 592.285522,879.981018 592.285522,851.290649 
	C596.613281,851.290649 601.018311,851.290649 606.000000,851.290649 
	C606.000000,864.310242 606.000000,877.405151 606.000000,891.000000 
z"/>


</svg>
